<svg id="Layer_1" data-name="Layer 1" xmlns="http://www.w3.org/2000/svg" xmlns:xlink="http://www.w3.org/1999/xlink" viewBox="0 0 445.44 74.96"><defs><style>.cls-1{fill:#fff;}.cls-2{fill:none;}.cls-3,.cls-34,.cls-46,.cls-5,.cls-70{fill:#fefefe;}.cls-4{fill:#231f20;}.cls-5{stroke:#fff;stroke-width:3px;}.cls-6{mask:url(#mask);}.cls-7{fill:#33c2f1;}.cls-8{fill:#83d3ee;}.cls-9{fill:#faaf3f;}.cls-10{fill:#3d6932;}.cls-11{fill:#fccc0d;}.cls-12{fill:#fae397;}.cls-13{fill:#5db046;}.cls-14{fill:#fdce0a;}.cls-15{fill:#fde57d;}.cls-16{fill:#3956a5;}.cls-17{fill:#4764ac;}.cls-18{fill:#7985c0;}.cls-19{fill:#60cb00;}.cls-20{mask:url(#mask-3);}.cls-21{fill:#3fba00;}.cls-22{fill:#246d2b;}.cls-23{fill:#89292b;}.cls-24{fill:#fde38a;}.cls-25{fill:#e27725;}.cls-26,.cls-30{fill:#9a4645;}.cls-26,.cls-34,.cls-48{opacity:0.2;}.cls-26,.cls-28,.cls-29,.cls-31,.cls-33,.cls-34,.cls-38,.cls-46,.cls-48,.cls-70{isolation:isolate;}.cls-27,.cls-29{fill:#f1c94e;}.cls-28,.cls-32{fill:#e99349;}.cls-28,.cls-29,.cls-31,.cls-33,.cls-38{opacity:0.4;}.cls-31{fill:#d28144;}.cls-33{fill:#de4a2c;}.cls-35{fill:#f79b4a;}.cls-36{fill:#37c0ef;}.cls-37{fill:#84d0ec;}.cls-38{fill:#233b20;}.cls-39{mask:url(#mask-4);}.cls-40{fill:#592928;}.cls-41{mask:url(#mask-5);}.cls-42,.cls-48{fill:#020303;}.cls-43{fill:#d84573;}.cls-44{mask:url(#mask-6);}.cls-45{mask:url(#mask-7);}.cls-46{opacity:0.5;}.cls-47{fill:#be2827;}.cls-49{fill:#f48c77;}.cls-50{mask:url(#mask-8);}.cls-51{mask:url(#mask-9);}.cls-52{clip-path:url(#clip-path);}.cls-53,.cls-70{opacity:0.3;}.cls-54{mask:url(#mask-10);}.cls-55{fill:#7b5c24;}.cls-56{fill:#912c2a;}.cls-57{mask:url(#mask-11);}.cls-58{fill:#ad4471;}.cls-59{fill:#d65926;}.cls-60{fill:#faae17;}.cls-61{mask:url(#mask-12);}.cls-62{fill:#fdd00a;}.cls-63{fill:#327f3e;}.cls-64{mask:url(#mask-13);}.cls-65{fill:#5eb246;}.cls-66{fill:#426ab2;}.cls-67{fill:#213266;}.cls-68{mask:url(#mask-14);}.cls-69{fill:#4164ae;}.cls-71{clip-path:url(#clip-path-2);}.cls-72{fill:#2f3866;}.cls-73{mask:url(#mask-15);}.cls-74{mask:url(#mask-16);}</style><mask id="mask" x="8.49" y="16.34" width="57.25" height="41.85" maskUnits="userSpaceOnUse"><g id="b"><path id="a" class="cls-1" d="M59.3,16.35,11.43,20.68a3.23,3.23,0,0,0-2.92,3.5h0l2.93,31.07a3.22,3.22,0,0,0,3.5,2.92l47.87-4.33a3.23,3.23,0,0,0,2.92-3.5L62.8,19.27a3.23,3.23,0,0,0-3.5-2.92"/></g></mask><mask id="mask-3" x="375.81" y="5.09" width="64.97" height="64.33" maskUnits="userSpaceOnUse"><g id="b-2" data-name="b"><path id="a-2" data-name="a" class="cls-1" d="M406.64,5.09h0a8.75,8.75,0,0,0-1.79.35l-27.56,7.43c-1.08.43-1.45,1.56-1.45,2.89V57.31A1.87,1.87,0,0,0,377,59.17l27.78,9.92a8.54,8.54,0,0,0,1.79.33h0a7.79,7.79,0,0,0,1.75-.31l31-8.47c.52-.15,1.4-.36,1.4-2.55V15.76a2.79,2.79,0,0,0-2.38-2.92l-30-7.47a9,9,0,0,0-1.73-.28Z"/></g></mask><mask id="mask-4" x="333.95" y="33.35" width="24.96" height="28.33" maskUnits="userSpaceOnUse"><g id="b-3" data-name="b"><path id="a-3" data-name="a" class="cls-1" d="M334,41.82s5.51,19.87,5.51,19.87l6-.8,6.08-.67,2-2.84L353,39.19"/></g></mask><mask id="mask-5" x="335.99" y="22.39" width="14.53" height="12.24" maskUnits="userSpaceOnUse"><g id="d-2" data-name="d"><path id="c-2" data-name="c" class="cls-1" d="M336,28.05l2.41,6.58L348.5,33l-.15-6.46s-12.16,1-12.36,1.51"/></g></mask><mask id="mask-6" x="83.91" y="13.85" width="56.76" height="45.45" maskUnits="userSpaceOnUse"><g id="b-4" data-name="b"><path id="a-4" data-name="a" class="cls-1" d="M118.69,15.17c-8.17,1.11-14.51,7.07-19.13,9.08-5.1,2.21-10.33,5.14-15.65,1l2.9,31.43s1.89,4.36,10.11,1.79c15.37-4.79,26.39-13.81,34.36-14.44,5.72-.45,8.54.18,9.38,1.63L129.44,16.23s-1.64-1.37-6.43-1.37A33.1,33.1,0,0,0,118.69,15.17Z"/></g></mask><mask id="mask-7" x="83.91" y="14.86" width="56.76" height="46.16" maskUnits="userSpaceOnUse"><g id="d-3" data-name="d"><path id="c-3" data-name="c" class="cls-1" d="M118.69,15.17c-8.17,1.11-14.51,7.07-19.13,9.08-5.1,2.21-10.33,5.14-15.65,1l2.9,31.43s1.89,4.36,10.11,1.79c15.37-4.79,26.39-13.81,34.36-14.44,5.72-.45,8.54.18,9.38,1.63L129.44,16.23s-1.64-1.37-6.43-1.37A33.1,33.1,0,0,0,118.69,15.17Z"/></g></mask><mask id="mask-8" x="93.23" y="13.84" width="28.88" height="24.97" maskUnits="userSpaceOnUse"><g id="f"><path id="e" class="cls-1" d="M93.23,17.89l1.55,16.59s.35,6.8,6.53,3.36,18.41-15.37,18.41-15.37,2.32-2,1.83-3.45S118,17,118,17L98.36,13.89a4,4,0,0,0-.68-.05A4.22,4.22,0,0,0,93.23,17.89Z"/></g></mask><mask id="mask-9" x="93.23" y="13.84" width="28.39" height="26.59" maskUnits="userSpaceOnUse"><g id="h"><path id="g" class="cls-1" d="M93.23,17.89l1.55,16.59s.35,6.8,6.53,3.36,18.41-15.37,18.41-15.37,2.32-2,1.83-3.45S118,17,118,17L98.36,13.89a4,4,0,0,0-.68-.05A4.22,4.22,0,0,0,93.23,17.89Z"/></g></mask><clipPath id="clip-path"><polygon class="cls-2" points="225.46 24.71 260.46 10.63 276.21 11.88 291.86 27.6 294.57 29.8 295.46 45.21 282.46 57.71 261.71 57.46 245.21 68.21 228.21 62.71 224.46 34.96 225.46 24.71"/></clipPath><mask id="mask-10" x="231.57" y="-10.21" width="70.34" height="71.02" maskUnits="userSpaceOnUse"><g id="b-5" data-name="b"><path id="a-5" data-name="a" class="cls-1" d="M252.44,18.3c-8.75,3-12.25,4.95-15.54,8-1,.95-5.84,15.07-5.29,22.11s2.94,12.13,10.83,12.35,11.45-6,14.73-9.59,8.58-5.46,13.23-3.94,12.08,3.5,17.58-2.57,2-11.9.39-14.63S275.46,17,271.6,15.93a15.11,15.11,0,0,0-3.88-.41,50.79,50.79,0,0,0-15.28,2.79"/></g></mask><mask id="mask-11" x="267.05" y="25.84" width="6.84" height="7.38" maskUnits="userSpaceOnUse"><g id="d-4" data-name="d"><path id="c-4" data-name="c" class="cls-1" d="M270.66,27.4a2.92,2.92,0,1,0,3.21,2.6,2.92,2.92,0,0,0-3.21-2.6"/></g></mask><mask id="mask-12" x="270.36" y="20.69" width="6.78" height="7.39" maskUnits="userSpaceOnUse"><g id="f-2" data-name="f"><path id="e-2" data-name="e" class="cls-1" d="M274,22.24a2.92,2.92,0,0,0,.48,5.83h.12a2.93,2.93,0,0,0-.6-5.82"/></g></mask><mask id="mask-13" x="264.18" y="17.82" width="6.78" height="7.37" maskUnits="userSpaceOnUse"><g id="h-2" data-name="h"><path id="g-2" data-name="g" class="cls-1" d="M267.79,19.36a2.92,2.92,0,1,0,.49,5.82h.12a2.92,2.92,0,0,0-.62-5.81"/></g></mask><mask id="mask-14" x="260.93" y="23.55" width="6.84" height="7.38" maskUnits="userSpaceOnUse"><g id="j"><path id="i" class="cls-1" d="M264.54,25.1a2.92,2.92,0,0,0,.61,5.81h0a2.92,2.92,0,1,0-.61-5.81"/></g></mask><clipPath id="clip-path-2"><polygon class="cls-2" points="149.96 22.71 206.21 10.46 215.21 13.96 220.21 28.96 222.68 42.71 221.21 56.71 210.71 71.96 170.96 74.96 148.44 62.71 148.75 29.18 149.96 22.71"/></clipPath><mask id="mask-15" x="153.61" y="-10.36" width="72.98" height="70.86" maskUnits="userSpaceOnUse"><g id="b-6" data-name="b"><path id="a-6" data-name="a" class="cls-1" d="M209.1,18.63c-5.67,0-30.91.54-54.35,9.32a1.78,1.78,0,0,0-1.14,1.78c.28,4.25,1.46,18.07,5.33,29.55a1.78,1.78,0,0,0,1.78,1.22c6.89-.37,38.89-2.51,55.07-11.32a1.79,1.79,0,0,0,.92-1.77c-.5-4.24-2.43-19-6-27.68a1.76,1.76,0,0,0-1.63-1.1"/></g></mask><mask id="mask-16" x="156.33" y="-1.66" width="68.71" height="59.26" maskUnits="userSpaceOnUse"><g id="d-5" data-name="d"><path id="c-5" data-name="c" class="cls-1" d="M156.33,29.77s.63,15.39,5.13,27.82c0,0,36.92-1.44,52.14-10.44,0,0-1.08-18.2-5.76-25.85,0,0-28,0-51.51,8.47"/></g></mask></defs><title>Artboard 1</title><path class="cls-3" d="M61.81,12.7,35.06,15.12Z"/><path class="cls-4" d="M35.19,16.56l-.26-2.89,26.75-2.42.26,2.89Z"/><path class="cls-3" d="M5.06,21.43,6.78,40.36Z"/><path class="cls-4" d="M5.33,40.49,3.62,21.56l2.89-.26L8.22,40.23Z"/><path class="cls-3" d="M12.43,61.82,39.18,59.4,12.43,61.82Z"/><path class="cls-4" d="M12.56,63.26l-.26-2.89L39.05,58l.26,2.89Z"/><path class="cls-3" d="M8.31,17.54l26.75-2.42L8,17.57A3.23,3.23,0,0,0,5,21.07H5l0,.36a3.59,3.59,0,0,1,3.25-3.89h0"/><path class="cls-4" d="M3.62,21.56l0-.36a4.68,4.68,0,0,1,4.23-5.08l27.11-2.45.26,2.89L8.44,19a2.12,2.12,0,0,0-1.93,2.31l-2.89.27Z"/><path class="cls-3" d="M8.54,58.57,6.78,40.36,8.57,58.93a3.23,3.23,0,0,0,3.51,2.92h0l.35,0a3.59,3.59,0,0,1-3.89-3.25h0"/><path class="cls-4" d="M11.78,63.31a4.66,4.66,0,0,1-4.65-4.25L5.33,40.5l2.89-.28L10,58.44a2.11,2.11,0,0,0,2.31,1.93l.26,2.89h0l-.34,0a3.17,3.17,0,0,1-.43,0"/><path class="cls-3" d="M69.21,53.44,65.67,15.59a3.23,3.23,0,0,0-3.51-2.93h0l-.35,0a3.58,3.58,0,0,1,3.89,3.24h0l3.48,37.15A3.59,3.59,0,0,1,65.94,57h0L39.18,59.4l27.11-2.46a3.23,3.23,0,0,0,2.92-3.5"/><path class="cls-4" d="M39.31,60.84,39.05,58,65.8,55.53a2.13,2.13,0,0,0,1.94-2.25l-3.48-37.2a2.14,2.14,0,0,0-2.32-1.94l-.26-2.89.35,0a4.68,4.68,0,0,1,5.08,4.24L70.62,53V53l0,.27a4.66,4.66,0,0,1-4.23,5.08Z"/><path class="cls-5" d="M62.81,53.84,14.94,58.17a3.23,3.23,0,0,1-3.5-2.92h0L8.51,24.18a3.23,3.23,0,0,1,2.92-3.5h0L59.3,16.35a3.22,3.22,0,0,1,3.5,2.92l2.93,31.06a3.23,3.23,0,0,1-2.92,3.51h0m6.37-.75L65.7,15.94a3.58,3.58,0,0,0-3.89-3.24h0L35.06,15.12,8.31,17.54a3.58,3.58,0,0,0-3.25,3.88L6.78,40.36,8.54,58.57a3.59,3.59,0,0,0,3.89,3.25L39.18,59.4,65.94,57a3.59,3.59,0,0,0,3.24-3.89h0"/><path class="cls-4" d="M59.59,17.78h-.16L11.56,22.12a1.76,1.76,0,0,0-1.2.63,1.8,1.8,0,0,0-.41,1.3l2.93,31.06a1.78,1.78,0,0,0,.63,1.21,1.81,1.81,0,0,0,1.3.4l47.87-4.33a1.78,1.78,0,0,0,1.61-1.92L61.36,19.4a1.77,1.77,0,0,0-1.77-1.62M14.65,59.63A4.68,4.68,0,0,1,10,55.38L7.06,24.32a4.7,4.7,0,0,1,1.07-3.43,4.64,4.64,0,0,1,3.17-1.66L59.17,14.9A4.67,4.67,0,0,1,62.59,16a4.62,4.62,0,0,1,1.66,3.17L67.18,50.2a4.68,4.68,0,0,1-4.24,5.08L15.07,59.61a3,3,0,0,1-.42,0m47.49-45.5h-.2L8.44,19A2.1,2.1,0,0,0,7,19.74a2.08,2.08,0,0,0-.48,1.55L8.22,40.23,10,58.43a2.14,2.14,0,0,0,2.31,1.94h0l53.5-4.84a2.11,2.11,0,0,0,1.93-2.31L64.25,16.08a2.13,2.13,0,0,0-2.11-1.95m-50,49.15a5,5,0,0,1-5-4.58L5.33,40.5,3.62,21.56a5,5,0,0,1,4.55-5.47l53.51-4.84a5,5,0,0,1,5.46,4.56L70.62,53a5,5,0,0,1-4.56,5.46l-53.5,4.84a3.62,3.62,0,0,1-.46,0"/><path class="cls-3" d="M62.81,53.84,14.94,58.17a3.23,3.23,0,0,1-3.5-2.92h0L8.51,24.18a3.23,3.23,0,0,1,2.92-3.5h0L59.3,16.35a3.22,3.22,0,0,1,3.5,2.92l2.93,31.06a3.23,3.23,0,0,1-2.92,3.51h0m6.37-.75L65.7,15.94a3.58,3.58,0,0,0-3.89-3.24h0L35.06,15.12,8.31,17.54a3.58,3.58,0,0,0-3.25,3.88L6.78,40.36,8.54,58.57a3.59,3.59,0,0,0,3.89,3.25L39.18,59.4,65.94,57a3.59,3.59,0,0,0,3.24-3.89h0"/><path class="cls-4" d="M59.59,17.78h-.16L11.56,22.12a1.76,1.76,0,0,0-1.2.63,1.8,1.8,0,0,0-.41,1.3l2.93,31.06a1.78,1.78,0,0,0,.63,1.21,1.81,1.81,0,0,0,1.3.4l47.87-4.33a1.78,1.78,0,0,0,1.61-1.92L61.36,19.4a1.77,1.77,0,0,0-1.77-1.62M14.65,59.63A4.68,4.68,0,0,1,10,55.38L7.06,24.32a4.7,4.7,0,0,1,1.07-3.43,4.64,4.64,0,0,1,3.17-1.66L59.17,14.9A4.67,4.67,0,0,1,62.59,16a4.62,4.62,0,0,1,1.66,3.17L67.18,50.2a4.68,4.68,0,0,1-4.24,5.08L15.07,59.61a3,3,0,0,1-.42,0m47.49-45.5h-.2L8.44,19A2.1,2.1,0,0,0,7,19.74a2.08,2.08,0,0,0-.48,1.55L8.22,40.23,10,58.43a2.14,2.14,0,0,0,2.31,1.94h0l53.5-4.84a2.11,2.11,0,0,0,1.93-2.31L64.25,16.08a2.13,2.13,0,0,0-2.11-1.95m-50,49.15a5,5,0,0,1-5-4.58L5.33,40.5,3.62,21.56a5,5,0,0,1,4.55-5.47l53.51-4.84a5,5,0,0,1,5.46,4.56L70.62,53a5,5,0,0,1-4.56,5.46l-53.5,4.84a3.62,3.62,0,0,1-.46,0"/><g class="cls-6"><path class="cls-7" d="M8.53,24.41l2.91,30.84a3.22,3.22,0,0,0,3.5,2.92h0l47.87-4.33a3.23,3.23,0,0,0,2.92-3.5h0l-1-11.11a50.28,50.28,0,0,1-18.8,4.26C28,44.13,12.7,36,8.53,24.41"/></g><g class="cls-6"><path class="cls-8" d="M59.3,16.35,11.43,20.68a3.23,3.23,0,0,0-2.92,3.5l0,.24C12.7,36,28,44.13,45.88,43.48a50.28,50.28,0,0,0,18.8-4.25l-1.88-20a3.23,3.23,0,0,0-3.5-2.92"/></g><path class="cls-9" d="M32.23,32.05a3.22,3.22,0,1,1,3.1-3.33,3.22,3.22,0,0,1-3.1,3.33m-.46-7.5a4.31,4.31,0,0,0-3.94,4.52,4.23,4.23,0,0,0,4.62,4,4.29,4.29,0,1,0-.68-8.56"/><path class="cls-10" d="M56.4,26.71l-.07,0c-2.78-1.13-5.94-2.13-8.73-1C44.28,27,42.64,31,41.47,34A15.5,15.5,0,0,1,39,38.32a4.85,4.85,0,0,1-2.61,1.84c-1.62.31-3.09-.86-4.47-1.77a9.12,9.12,0,0,0-6.16-1.73c-2.38.34-4.35,2-5.9,3.83S17,44.38,15.21,46a11.36,11.36,0,0,0-.92,1,1.1,1.1,0,0,0-.06,1.27,4.43,4.43,0,0,0,.36.5c.53.6,1.55-.66,2.07-1.05,2-1.49,3.15-3.75,4.7-5.66s3.83-3.61,6.26-3.22,4.22,2.82,6.66,3.43c2.73.68,5.53-1.14,7.14-3.44s2.4-5.06,3.68-7.56a7.54,7.54,0,0,1,2.61-3.18c2.25-1.35,5.14-.53,7.55.51.54.23,1.18.76,1.79.6.3-.09.55.15.66-.15a2.69,2.69,0,0,0,0-1,2.08,2.08,0,0,0-1.32-1.32"/><path class="cls-11" d="M35.24,28.07a1.09,1.09,0,0,1-1.06.85,1.72,1.72,0,0,1-.63-.09,2.9,2.9,0,0,1-1.73-1.7l-.52-1.41a3.22,3.22,0,1,0,3.94,2.35"/><path class="cls-12" d="M33.55,28.83a1.72,1.72,0,0,0,.63.09,1.09,1.09,0,0,0,1.06-.85,3.22,3.22,0,0,0-3.89-2.36H31.3l.52,1.41a2.9,2.9,0,0,0,1.73,1.7"/><path class="cls-13" d="M56.43,27.52l-.07,0c-2.78-1.14-6-2.13-8.73-1-2.51,1-4.06,3.55-5.17,6s-2,5.14-3.87,7.11A4.2,4.2,0,0,1,36.42,41c-1.62.31-3.09-.87-4.47-1.77a9.13,9.13,0,0,0-6.17-1.73c-2.37.34-4.34,2-5.89,3.83S17,45.19,15.24,46.78c-.49.44-1.25,1.32-.65,2s1.58.15,2.1-.25c2-1.49,3.15-3.74,4.7-5.65s3.83-3.61,6.26-3.23,4.22,2.82,6.66,3.43c2.73.68,5.53-1.13,7.14-3.43s2.4-5.06,3.68-7.57a7.57,7.57,0,0,1,2.61-3.17c2.25-1.35,5.14-.53,7.55.5a3.38,3.38,0,0,0,1.33.38,1.09,1.09,0,0,0,1.08-.73c.19-.7-.59-1.24-1.27-1.53"/><path class="cls-14" d="M65.93,57,39.18,59.4l27.11-2.46a3.22,3.22,0,0,0,2.92-3.5l0-.33A3.58,3.58,0,0,1,65.93,57"/><path class="cls-14" d="M64.71,39.44l1,10.89a3.23,3.23,0,0,1-2.92,3.51L14.94,58.17a3.23,3.23,0,0,1-3.5-2.92L8.63,25.52A19.09,19.09,0,0,1,7.21,19c0-.41,0-.81,0-1.21a3.57,3.57,0,0,0-2.15,3.61L6.78,40.36,8.54,58.57a3.59,3.59,0,0,0,3.89,3.25L39.18,59.4,65.93,57a3.59,3.59,0,0,0,3.25-3.87L67.76,37.9c-1,.55-2,1.07-3.05,1.54"/><path class="cls-14" d="M69.18,53.11v0L67.76,37.9Z"/><path class="cls-8" d="M61.81,12.7,35.06,15.12ZM8.31,17.54l26.75-2.42L8,17.57a3,3,0,0,0-.73.16.28.28,0,0,0,0,.09,3.5,3.5,0,0,1,1.1-.28m57.39-1.6,1.76,18.78L65.67,15.59a3.22,3.22,0,0,0-3.51-2.92h0l-.35,0a3.58,3.58,0,0,1,3.89,3.24h0"/><path class="cls-15" d="M7.21,17.82c0,.4,0,.8,0,1.21a18.63,18.63,0,0,0,1.42,6.49l-.13-1.34a3.23,3.23,0,0,1,2.92-3.5h0L59.3,16.35a3.22,3.22,0,0,1,3.5,2.92h0l1.91,20.17c1.05-.48,2.07-1,3.05-1.54l-.3-3.18L65.7,15.94a3.58,3.58,0,0,0-3.89-3.24h0L35.06,15.12,8.31,17.54a3.5,3.5,0,0,0-1.1.28"/><path class="cls-8" d="M67.77,37.9l-.31-3.18Z"/><path class="cls-16" d="M58.71,45.57a7.82,7.82,0,0,0-4.93-3l-1.12-.19,1-.56.29-.19A4.72,4.72,0,0,0,51.15,33a4.75,4.75,0,0,0-3.66,2,4.71,4.71,0,0,0,2.29,7.22l1.07.37L49.78,43a7.89,7.89,0,0,0-5.17,7.73l4.23-.4,11.43-1.06a7.87,7.87,0,0,0-1.56-3.66"/><path class="cls-17" d="M53.78,42.6l-1.12-.19,1-.56.29-.19c-2.57,0-4.6-.82-5.7-2.41A5.69,5.69,0,0,1,47.49,35a4.71,4.71,0,0,0,2.29,7.22l1.07.37L49.78,43a7.87,7.87,0,0,0-5.16,7.73l4.22-.4a32.74,32.74,0,0,0,9.87-4.72,7.82,7.82,0,0,0-4.93-3"/><path class="cls-18" d="M48.24,39.25c1.1,1.59,3.13,2.37,5.7,2.41A4.72,4.72,0,0,0,51.15,33a4.75,4.75,0,0,0-3.66,2,5.69,5.69,0,0,0,.75,4.27"/><path class="cls-19" d="M375.81,15.76c0-1.33.37-2.46,1.45-2.89l27.56-7.43a8.75,8.75,0,0,1,1.79-.35,8.55,8.55,0,0,1,1.8.28l30,7.47a2.79,2.79,0,0,1,2.38,2.92V58.09c0,2.19-.88,2.4-1.4,2.55l-31,8.47a8.35,8.35,0,0,1-1.79.31,8.54,8.54,0,0,1-1.79-.33L377,59.17a1.87,1.87,0,0,1-1.23-1.86V15.76Z"/><g class="cls-20"><path class="cls-21" d="M408.09,5.32l30,7.48a2.79,2.79,0,0,1,2.38,2.91V58c0,2.19-.89,2.4-1.4,2.56l-31,8.47V5.32Z"/></g><path class="cls-1" d="M419.18,13.67l14.34,2.92s2.35.47,2.35,2.61V33.47s.14,2.45-1.85,3.28c-1.57.66,1.88-.45,1.91,2.67s0,14.77,0,14.77,0,2.39-1.8,3.06S416.71,61,416.71,61s-2.71.61-2.71-4.16c0-3.92,1.65-5.14,3.61-5.42,2.35-.33,12.27-1.47,12.27-1.47s.61,0,.61-1V42.45s.09-1-.5-1.06-8.85.14-8.85.14-2.75,0-2.75-4.56c0-3.22,1.63-4.33,3.48-4.38s8.23.11,8.29.11a.45.45,0,0,0,.39-.5V24.78s0-.53-.34-.58c-.51-.09-13.44-1.5-13.44-1.5s-3-.42-3-5.14c0-3.33,1.59-4.47,3.5-4.19s1.93.3,1.93.3"/><path class="cls-22" d="M430.17,32.7a.45.45,0,0,0,.38-.5V24.76s0-.52-.34-.58c-.51-.08-13.44-1.5-13.44-1.5s-3-.42-3-5.14c0-1.85.49-3,1.25-3.65a5.84,5.84,0,0,0-.58,2.82c0,4.72,3,5.14,3,5.14s12.94,1.42,13.45,1.5c.33,0,.33.58.33.58v8.36c0,.45-.33.41-.39.41Zm-.29,17.22s.61,0,.61-1V42.43s.09-1-.5-1.06-8.85.14-8.85.14-2.74,0-2.74-4.55a4.54,4.54,0,0,1,1.27-3.61,5.6,5.6,0,0,0-.6,2.78c0,4.52,2.74,4.55,2.74,4.55s8.18-.17,8.85-.14.51,1.06.51,1.06v7.23a.92.92,0,0,1-.62,1l-.67.11ZM435.46,56a2.45,2.45,0,0,1-1.32,1.2c-1.8.67-17.42,3.73-17.42,3.73s-2.72.61-2.72-4.17c0-2.32.58-3.69,1.45-4.48a7.17,7.17,0,0,0-.78,3.65c0,4.77,2.72,4.16,2.72,4.16s15.63-3,17.42-3.72a2.29,2.29,0,0,0,.65-.37"/><path class="cls-1" d="M402.28,6.55s3.88-1.13,4.27-1.16c.58,0,.84.22.84.55V67.36s-.71-60.3-1-60.69-1.17-.25-1.68-.25-2.4.13-2.4.13"/><path class="cls-22" d="M434.87,61.6l4.33-1.16a1.63,1.63,0,0,0,1.05-1.18V14.81s-.91,43-1,43.71c-.09.5-.67,1-1.1,1.25s-3.25,1.83-3.25,1.83"/><path class="cls-1" d="M381.4,59.94l-4.33-1.16A1.63,1.63,0,0,1,376,57.6V19s.91,37.13,1,37.88c.09.5.67,1,1.1,1.25s3.25,1.83,3.25,1.83"/><path class="cls-22" d="M413.27,67.21s-3.88,1.12-4.26,1.15c-.58,0-.84-.21-.84-.54V41s.71,25.74,1,26.12,1.16.26,1.68.26,2.39-.13,2.39-.13"/><path class="cls-1" d="M378,33.62c-.07,0-.12-.09-.06-.18a.1.1,0,0,1,.11,0h1.67a1.17,1.17,0,0,1,.52.14.75.75,0,0,1,.34.42,1.23,1.23,0,0,1,0,.42l-.19,2.22-.27,3a1,1,0,0,0,.09.5.74.74,0,0,0,.42.32,4.6,4.6,0,0,0,.48.12s.09,0,.09.09a.13.13,0,0,1-.07.13.29.29,0,0,1-.13,0h-1.75a.82.82,0,0,1-.55-.25.85.85,0,0,1-.24-.57v-.34l.48-5a1.41,1.41,0,0,0-.07-.45.58.58,0,0,0-.36-.34c-.16-.07-.56-.2-.56-.2m3.46,0a.11.11,0,0,1-.05-.18.12.12,0,0,1,.11,0h1.67a1.34,1.34,0,0,1,.52.14.81.81,0,0,1,.34.43,1.58,1.58,0,0,1,0,.42l-.19,2.21-.27,3a1.06,1.06,0,0,0,.08.51.86.86,0,0,0,.43.32,4.6,4.6,0,0,0,.48.12s.09,0,.09.09,0,.09-.09.13l-.11,0H382.8a.84.84,0,0,1-.56-.25A.87.87,0,0,1,382,40v-.34l.47-5a1.39,1.39,0,0,0-.08-.42.86.86,0,0,0-.34-.37,3.3,3.3,0,0,0-.57-.2m3.38,0a.11.11,0,0,1-.05-.18.1.1,0,0,1,.11,0h1.67a1.17,1.17,0,0,1,.52.14.75.75,0,0,1,.34.42,1.58,1.58,0,0,1,0,.42l-.19,2.21-.27,3a1,1,0,0,0,.09.5.77.77,0,0,0,.4.33c.13,0,.5.11.5.11s.09,0,.09.1a.12.12,0,0,1-.08.13.18.18,0,0,1-.12,0h-1.75a.84.84,0,0,1-.56-.25.87.87,0,0,1-.23-.57v-.34l.47-5a1.34,1.34,0,0,0-.08-.41.84.84,0,0,0-.34-.38,3.3,3.3,0,0,0-.57-.2m3.48-2.17a.13.13,0,0,1-.06-.16c0-.09.16-.08.16-.08h1.69a1.35,1.35,0,0,1,.71.22.69.69,0,0,1,.29.56c0,.16-.14,1.94-.14,1.94s0,.11,0,.11.26-.12.47-.21a3,3,0,0,1,1.15-.2,3.09,3.09,0,0,1,1.7.56,2.75,2.75,0,0,1,1.08,1.53,4.19,4.19,0,0,1,.17,1.2,5,5,0,0,1-.19,1.39,3.66,3.66,0,0,1-.53,1.14,3.53,3.53,0,0,1-.72.77,3.93,3.93,0,0,1-1.08.6,4.29,4.29,0,0,1-1.26.19,3.93,3.93,0,0,1-1.62-.35,2.37,2.37,0,0,1-.86-.71,3.56,3.56,0,0,1-.39-.64c-.05-.18,0-.25,0-.29a.07.07,0,0,1,.11,0s.27.25.39.34a2.21,2.21,0,0,0,.68.4,4,4,0,0,0,1.07.25,2.65,2.65,0,0,0,1.3-.25,3,3,0,0,0,.92-.8A3.1,3.1,0,0,0,394,37.7a3.4,3.4,0,0,0,.11-1.14,3.73,3.73,0,0,0-.32-1.29,1.67,1.67,0,0,0-1.12-1,1.87,1.87,0,0,0-.7,0,1.37,1.37,0,0,0-.82.47,1.19,1.19,0,0,0-.19.65c0,.14-.24,2.26-.24,2.26a4.51,4.51,0,0,0,0,.62,1.24,1.24,0,0,0,.23.52c.11.1.21.12.2.18a.25.25,0,0,1-.2.17,1.69,1.69,0,0,1-.67,0,1.44,1.44,0,0,1-.9-.6,2,2,0,0,1-.38-1c0-.39.2-2.74.2-2.74l.24-2.44a.77.77,0,0,0-.23-.51,1.31,1.31,0,0,0-.58-.27.79.79,0,0,1-.25-.06M400.87,34a3.1,3.1,0,0,1,.67,0,2.47,2.47,0,0,1,.77.14l.36.14c.05,0,.15,0,.17-.06s-.07-.15-.19-.25a3.81,3.81,0,0,0-1.11-.53,4.18,4.18,0,0,0-1.27-.11,4.86,4.86,0,0,0-1.86.54A5,5,0,0,0,397,35.11a4,4,0,0,0-.24,3.63,3.79,3.79,0,0,0,1.37,1.53,4.36,4.36,0,0,0,2.15.6,3.77,3.77,0,0,0,2.08-.68c.41-.33.42-.38.44-.46s-.05-.16-.11-.16-.11,0-.3.13a3.32,3.32,0,0,1-.83.25,3,3,0,0,1-1.32-.12,3.39,3.39,0,0,1-1.07-.64,3.07,3.07,0,0,1-.65-1,3.9,3.9,0,0,1-.18-1.25,3.06,3.06,0,0,1,.43-1.49,3.21,3.21,0,0,1,1.16-1.12,3.29,3.29,0,0,1,.95-.36"/><path class="cls-4" d="M332.06,64a30.21,30.21,0,0,1-3.35-.16,37,37,0,0,1-5.43-1.11,127.85,127.85,0,0,1-12.4-4,3.68,3.68,0,0,1-1.18-.66,3.51,3.51,0,0,1-.9-1.37,37.85,37.85,0,0,1-1.88-6.19c-1.11-4.8-1.79-9.73-2.45-14.51l0-.12c-.11-.84-.23-1.69-.35-2.53a.34.34,0,0,0-.09-.19,7.72,7.72,0,0,1-2.35-4.43,2.84,2.84,0,0,1,0-1.4,3.05,3.05,0,0,1,1-1.5c3.09-2.9,6.28-5.89,9.69-8.58a25.79,25.79,0,0,1,4.09-2.74A31.06,31.06,0,0,1,320,13q9.53-3.37,19.11-6.61l.32-.1.68-.2.39-.08a2.7,2.7,0,0,1,.41-.06,3.83,3.83,0,0,1,1.17,0h0l.25,0,.13,0v0l.25.1.4.19.54.27.54.28.54.28.52.29.53.3.52.3.51.3.51.31.51.32.51.32.5.32.75.49,1,.67,1.28.89L353.74,13q6,4.31,11.84,8.84a2.26,2.26,0,0,1,.87,1.25,2.29,2.29,0,0,1-.15,1.39,14.48,14.48,0,0,1-2.19,3.41,4.13,4.13,0,0,1-1.28,1.18l-.26.12c-.55,9.67-1.4,19.46-2.52,29.08a2.12,2.12,0,0,1-1.58,1.94c-7.08,2.33-15,3.52-24.74,3.74l-1.67,0"/><path class="cls-23" d="M329.09,62.3l-1.19-.2a88.13,88.13,0,0,1-12.27-3.38q-2.34-.8-4.67-1.67a.64.64,0,0,1-.3-.24c-.89-1.5-1.76-4.67-2.55-8.29l1.3.45.19.07c.71.25,1.66.57,2.76.92a55.52,55.52,0,0,0,13.26,2.77h0l.39,1.38,0,.07c.12.42.25.83.38,1.24.32,1,.66,2,1,3,.24.67.51,1.34.79,2l.2.47q.1.24.21.45c.14.33.28.63.43.92"/><path class="cls-24" d="M325.55,52.73l-.24,0a56.16,56.16,0,0,1-13-2.75c-.93-.29-1.85-.6-2.77-.92l-.19-.07-1.22-.45c-1.3-6.06-2.34-13.37-2.71-16.16l.65.07c.29,0,.65.06,1.08.08l.68,0h0l.77,0h0a53.85,53.85,0,0,0,10-.6l1.56-.27.78-.56a213,213,0,0,0,4.61,21.57"/><path class="cls-23" d="M338.3,62.2l-1.69.09h-.39c-4.35.17-7.2,0-7.2,0-.08-.16-.16-.32-.23-.48s-.16-.33-.24-.5-.09-.2-.14-.31l0-.08-.21-.47c-.28-.67-.54-1.34-.79-2-.37-1-.71-2-1-3-.07-.22-.13-.44-.2-.66l-.2-.65h0c-.13-.45-.27-.91-.4-1.37H326c.51,0,1.41,0,2.49,0s2-.05,3-.1,2.24-.14,3.36-.28c.44-.06.85-.12,1.2-.2.18,1,.38,2,.56,2.87l.12.53,0,.15.15.75c.07.29.13.58.19.85l.06.3.23,1c.1.46.2.89.28,1.27,0,.11.06.22.08.32l.11.45c0,.17.07.32.11.47l.06.27v0c0,.07,0,.13,0,.19.1.41.15.63.15.63m21.1-13q-.45,4.59-.95,9.16a.32.32,0,0,1-.22.27c-1,.33-2,.62-2.93.89l-1.1.3c0-.22,0-.43.05-.65s0-.23,0-.34c0-.34.05-.68.06-1l0-.52c0-.31,0-.62,0-.93s0-.45,0-.68c0-.42,0-.85,0-1.27,0-1.38,0-2.78,0-4.15a12.83,12.83,0,0,0,3.7-.61,11.52,11.52,0,0,0,1.29-.44"/><path class="cls-24" d="M336.11,52.13a31,31,0,0,1-4.56.48c-1,0-2,.09-3,.1s-2,0-2.49,0h-.47a213,213,0,0,1-4.61-21.57l1.47-1,1-.7,2.69-2h0l.52-.39.46-.34.57-.42L329.38,25l1.21-.91,1.85-1.43.57-.44.6-.47.31-.25,1.34-1.07.67-.55.54-.44c1.06-.88,2.1-1.78,3.12-2.72l.33-.31c.49-.46.93-.9,1.3-1.31.08-.09.16-.17.23-.26l.29-.34c.15.12.3.24.46.35l.8.62.64.48.31.24,2.26,1.7.46.34.24.18.73.53q3.18,2.34,6.45,4.58c.77.51,1.52,1,2.24,1.47.37.24.74.48,1.1.69L358,26l.44.26.83.46.38.21.06,0c.19.1.38.2.56.28s.51.24.74.33c-.14,5.53-.9,14.21-1.55,21l-.06.62a11.52,11.52,0,0,1-1.29.44,13.27,13.27,0,0,1-3.7.61Z"/><path class="cls-25" d="M364.88,23.54c-.18,1.32-2.23,3.59-2.78,4.17a.33.33,0,0,1-.34.11,3.83,3.83,0,0,1-.75-.23c-.25-.1-.5-.21-.74-.33l-.56-.28-.44-.24c-.27-.14-.55-.3-.83-.47L358,26l-.57-.35-1.1-.69c-.72-.46-1.47-1-2.24-1.47q-3.27-2.24-6.45-4.58l-.73-.53-.24-.18-.46-.34L344,16.18l-.31-.24-.64-.48-.8-.62-.2-.15-.26-.2-.29.34c-.49.55-1,1.07-1.53,1.57l-.33.31c-1,.93-2,1.84-3.11,2.71l-.55.45-.67.55-1.34,1.07-.31.25-.6.47-.57.44-1.85,1.43-1.21.91-1.76,1.33-.57.42-.46.34-.52.38c-1,.73-1.9,1.39-2.7,2l-1,.7-1.47,1-.78.56-.18-.27-.09-.14c-.1-.15-.23-.35-.36-.57-.29-.46-.55-.94-.8-1.43s-.45-.93-.64-1.41a9.23,9.23,0,0,1-.45-1.44l0-.14,0-.15c0-.1,0-.2,0-.3l.65-.7c.4-.42.83-.84,1.26-1.27l.75-.71c.51-.48,1.05-1,1.6-1.45l.14-.12c1-.85,2-1.68,3-2.5.26-.22.53-.43.8-.64l.83-.65.64-.5L329,15.94l.16-.11,1.46-1.08.81-.59.79-.57,1.53-1.08a.71.71,0,0,1,.14-.1l.59-.42,1.06-.73.67-.46.63-.43.52-.35,1.92-1.28.81-.53.32-.21.77-.5a1.79,1.79,0,0,1,.48.07,14,14,0,0,1,3.22,1.53c3.14,1.82,7.54,4.92,11.41,7.77,1.22.9,2.39,1.77,3.45,2.57l.31.24,1.85,1.4c1,.75,2,1.52,3,2.28a1.09,1.09,0,0,1,0,.18Z"/><path class="cls-25" d="M320.16,31.72,318.6,32a53.85,53.85,0,0,1-10,.6h0l-.77,0h0l-.68-.05c-.43,0-.79-.06-1.08-.08l-.65-.07-.16,0c-1.32-.77-1.88-3.17-2.09-4.34a.91.91,0,0,1,.61-1h0a11,11,0,0,1,1.54-.32l.61-.09.17,0,.33,0h.09l.41-.05.42,0,.43,0,.45,0c1-.09,2-.16,3-.21l.56,0,.86,0h.28l.3,0h.83l1.69-.06h.62l1.17,0c0,.2.05.39.09.59a15.41,15.41,0,0,0,1.89,4.28c.13.22.26.42.36.57l.09.14a.75.75,0,0,1,.07.12l.05.06.06.09"/><path class="cls-25" d="M341.21,7.5l-.77.5-.26.17-.06,0c-.95.62-1.89,1.24-2.83,1.88l-.42.28L334.51,12l-.59.42a.71.71,0,0,0-.14.1q-.75.51-1.53,1.08l-.79.57c-.27.19-.54.38-.8.58h0l-1.46,1.08-.09.06h0l0,0,0,0-1.82,1.39-.64.5-.83.65c-.27.21-.54.42-.8.64-.81.65-1.6,1.31-2.37,2l-.62.53-.14.12c-.55.49-1.09,1-1.6,1.45l-.75.71c-.43.43-.86.85-1.26,1.27l-.65.7-1.17,0h-.62l-1.69.06h-.83l-.3,0h-.28l-.86,0-.56,0c-1,0-2,.12-3,.21l-.45,0-.26,0-.17,0-.42,0-.41.05h-.09l-.33,0-.17,0-.61.09a11,11,0,0,0-1.54.32s2.28-2.28,5.17-4.84c.57-.51,1.14-1,1.72-1.49h0q.65-.56,1.29-1.08l.44-.36c.51-.41,1-.81,1.54-1.2a29.77,29.77,0,0,1,2.56-1.76l.08-.06.19-.11h0c.26-.15.51-.29.75-.41l1.18-.42,2.21-.79c2.57-.92,6.27-2.23,9.87-3.48,4.37-1.52,8.58-2.94,10.4-3.45"/><path class="cls-26" d="M312.29,50a15.93,15.93,0,0,0,2.29,3.69c3.49,4.12,9,5.54,14,7.73.14.32.29.63.44.92l-1.19-.2a87.75,87.75,0,0,1-12.27-3.38q-2.32-.78-4.6-1.67a.59.59,0,0,1-.3-.24c-.89-1.5-1.76-4.67-2.55-8.29"/><path class="cls-27" d="M308.11,48.52c-1.3-6.06-2.34-13.37-2.71-16.16l.65.07c.29,0,.65.06,1.08.08l.68.05h0l.77,0h0c0,.24,0,.49,0,.74a36.83,36.83,0,0,0,2.1,12.23,35.72,35.72,0,0,0,1.64,4.4"/><path class="cls-28" d="M315.56,58.72q-2.32-.78-4.6-1.67a.6.6,0,0,1-.3-.24c-.89-1.49-1.76-4.67-2.55-8.29-1.3-6.06-2.34-13.37-2.71-16.16l.65.07a64.86,64.86,0,0,0,3,15.25c.24.68.49,1.36.77,2a30.37,30.37,0,0,0,4.35,7.39c.45.57.92,1.11,1.42,1.63"/><path class="cls-29" d="M325.55,52.73a213,213,0,0,1-4.61-21.57l1.47-1,1-.7L324,29l.32-.24,2.74-2q3.61-2.68,7.15-5.47l.58-.47c.59-.47,1.16-.93,1.7-1.38-.17.3-.34.61-.5.93a48.94,48.94,0,0,0-5.39,27.85,17,17,0,0,0,1,4.41"/><path class="cls-30" d="M331.55,52.61a8,8,0,0,0,1.31,2.27,8.34,8.34,0,0,0,3.2,2.29,12.3,12.3,0,0,0,1.16.41l.23,1c.1.46.2.89.28,1.27,0,.11.06.22.08.32l.11.45c0,.17.07.32.11.47l.06.27a.06.06,0,0,1,0,0c0,.07,0,.13,0,.19.1.41.15.63.15.63l-1.69.09h-.39c-4.35.17-7.2,0-7.2,0-.08-.16-.16-.32-.23-.48s-.16-.33-.24-.5-.09-.2-.14-.31l0-.08-.21-.47c-.28-.67-.54-1.34-.79-2-.37-1-.71-2-1-3-.07-.22-.13-.44-.2-.66l-.2-.65h0c-.13-.46-.27-.91-.4-1.38m33.91-4.17c-.32,3.26-.65,6.52-1,9.77a.32.32,0,0,1-.23.28c-1,.33-1.94.62-2.92.89l-1.1.3c0-.22,0-.43.05-.65s0-.23,0-.34c0-.34.05-.68.06-1l0-.52c0-.31,0-.62,0-.93s0-.45,0-.68a12.91,12.91,0,0,0,3.49-3.89,17.67,17.67,0,0,0,1.27-2.49c.1-.23.2-.47.29-.71"/><path class="cls-31" d="M341.21,7.5l-.77.5-.26.17c-2.11,1.37-4.2,2.79-6.26,4.24a.71.71,0,0,0-.14.1q-.75.51-1.53,1.08l-.79.57c-.27.19-.54.38-.8.58h0l-1.46,1.08-.1.07,0,0q-.93.69-1.86,1.41l-.64.5-.83.65c-.27.21-.54.42-.8.64-.81.65-1.6,1.31-2.37,2l-.62.53-.14.12-1,.87-.47.43-.16.15-.75.71c-.14.15-.29.29-.43.43l-.41.41-.42.43-.65.7-1.17,0h-.62l-1.69.06h-.83l-.3,0h-.28l-.86,0-.56,0c-1,0-2,.12-3,.21l-.45,0-.26,0-.17,0-.42,0-.41.05h-.09l-.33,0-.17,0c-.21,0-.41.05-.61.09a11,11,0,0,0-1.54.32s2.28-2.28,5.17-4.84a3.8,3.8,0,0,0,.37.33,6.23,6.23,0,0,0,1,.65,10.2,10.2,0,0,0,8.91,0l.39-.18a19.62,19.62,0,0,0,5.72-4.46c.34-.37.67-.75,1-1.13A44.85,44.85,0,0,0,330.81,11c4.37-1.52,8.58-2.94,10.4-3.45"/><path class="cls-31" d="M320.16,31.72,318.6,32a53.85,53.85,0,0,1-10,.6h0l-.77,0h0l-.68-.05c-.43,0-.79-.06-1.08-.08l-.65-.07-.16,0c-1.31-.77-1.88-3.15-2.09-4.33a.94.94,0,0,1,.63-1.05h0a11,11,0,0,1,1.54-.32l.61-.09.17,0,.33,0h.09a1.83,1.83,0,0,0,.19.6.2.2,0,0,0,0,.08,5.08,5.08,0,0,0,2.45,2,17.54,17.54,0,0,0,9.08,1.68c.41,0,.82-.08,1.23-.14.13.22.26.42.36.57l.09.14a.75.75,0,0,1,.07.12l.05.06.06.09"/><path class="cls-28" d="M326.07,27.46q-2.55,1.88-5.13,3.7l-.78.55s-2.4-3.44-2.61-5.84l.65-.7.06.09a5.18,5.18,0,0,0,3,1.84,12.29,12.29,0,0,0,4.83.36"/><path class="cls-32" d="M364.89,23.36c0,1.28-2.22,3.75-2.79,4.35a.32.32,0,0,1-.33.11,3.93,3.93,0,0,1-.76-.23c-.25-.1-.5-.21-.74-.33l-.56-.28-.06,0-.38-.21c-.27-.14-.55-.3-.83-.47L358,26l-.57-.35-1.1-.69c-.72-.46-1.47-1-2.24-1.47a7.37,7.37,0,0,0,1.48.16,5,5,0,0,0,1.09-.1,4.18,4.18,0,0,0,3.23-2.5,3.66,3.66,0,0,0,.19-1.39l1.85,1.4c1,.75,2,1.52,3,2.28"/><path class="cls-33" d="M362.08,27.74a.33.33,0,0,1-.29.09,5,5,0,0,1-.78-.24c-.14,5.52-.9,14.21-1.55,21-.32,3.25-.65,6.5-1,9.74a.37.37,0,0,1-.25.32c-1,.32-1.93.62-2.9.88a4.21,4.21,0,0,0,2-1.9,3.6,3.6,0,0,0,.27-1.25c.08-1.53.2-3.06.34-4.59.07-.71.13-1.43.21-2.14.57-5.58,1.33-11.15,1.69-16.76a7.6,7.6,0,0,0-.94-4.59A7.45,7.45,0,0,0,356.4,26c-5.59-3.79-8.39-5.69-10.27-7.2a5.66,5.66,0,0,0-2.66-1.36,5.91,5.91,0,0,0-3.54.63A30.29,30.29,0,0,0,336,20.35a98.77,98.77,0,0,0-9.15,7.38L325,29.31a6.63,6.63,0,0,0-1.83,2.14c-1.43,2.8-.17,6,.42,7.73A45.82,45.82,0,0,1,326,52.74a7.87,7.87,0,0,1-.07,1.37c-.12.12-.34-.44-.64-1.39-1.43-4.48-4.79-17.57-4.46-19.28a1.51,1.51,0,0,0-.16-1.15,1.39,1.39,0,0,0-1-.49l-.22,0a1.78,1.78,0,0,1-1.19-.89c-.71-1.09-1.11-2.89-2.36-3.86-1-.8-1.56-.21-8.23.1l-.94,0c-1.93.08-2.68.12-2.92.64-.44.94,1,2.9,2.87,3.76,1.43.67,2.39.34,5.68.21,2.27-.1,6.17-.13,6.2.21s-3.53,1.51-7.61,1.46c-1.23,0-1.92-.15-2.44-.11a1.46,1.46,0,0,0-.79.26c-.94.66-1.47,2.34,1.09,13.37.06.25.11.48.17.72.11.46.22.88.31,1.29,1.27,5.13,1.81,6,2.55,6.7a6.27,6.27,0,0,0,2.26,1.42c1.2.55,3.1,1.27,6.29,2.39,6,2.11,7.32,2.35,7.4,2.62a87.75,87.75,0,0,1-12.27-3.38c-2.34-.8-4.07-1.46-4.61-1.67a.55.55,0,0,1-.28-.24c-.89-1.49-1.77-4.66-2.56-8.29-1.3-6.06-2.34-13.37-2.71-16.16-1.47-.79-2-3.16-2.24-4.34a.93.93,0,0,1,.63-1.06s2.29-2.28,5.18-4.84c.48-.43,1-.86,1.48-1.29a5.36,5.36,0,0,1-1.11,1.62c-.85,1.06-1.83,2.3-1.42,2.95.29.48,1.05.17,4.89.11a10.86,10.86,0,0,0,3.4-.27,7.21,7.21,0,0,0,2.92-1.88c.15-.15.3-.3.47-.45a54.81,54.81,0,0,1,5.72-4.46q1.83-1.27,3.71-2.51c1-.62,1.65-1.07,2.06-1.35-1.32,1.13-5.63,5.17-8.78,7.78-.58.48-1.17,1-1.78,1.41a3.23,3.23,0,0,0-1.3,1.78,2.65,2.65,0,0,0,.68,2.45c.9.7,2.38.16,3.49-.32l.37-.16a40.49,40.49,0,0,0,10.53-7.45c5.06-5,5.45-6.4,7.35-6.47,2.13-.09,3.22,1.57,7.61,4.95a70.5,70.5,0,0,0,7.37,5c2.06,2.47,3.08,2.71,3.62,2.51,1.15-.43.61-3,1.68-5,1,.75,2,1.52,3,2.28,0,1.29-2.27,3.8-2.81,4.37Z"/><path class="cls-34" d="M364.89,23.36a1.09,1.09,0,0,1,0,.18A34.3,34.3,0,0,1,349.39,17a24.4,24.4,0,0,1-5.67-5.34,13.44,13.44,0,0,1-2-4.08,14,14,0,0,1,3.22,1.53c3.14,1.82,7.54,4.92,11.41,7.77,1.22.9,2.39,1.77,3.45,2.57l.31.24,1.85,1.4c1,.75,2,1.52,3,2.28"/><path class="cls-35" d="M318.64,48s-5.21-.21-6-.77c0,0-1.67-5.25-1.49-6.68a15.31,15.31,0,0,1,6.43.45,38.79,38.79,0,0,1,1,7m-.42-8.21a14.29,14.29,0,0,0-8.13,0s.56,5.6,1.84,8.21c0,0,5.56,1.22,7.65.83,0,0-.17-7.17-1.36-9"/><path class="cls-36" d="M318.64,48s-1.12-.05-2.4-.15h-.07l-.5,0-.58-.06h0a7.59,7.59,0,0,1-2.4-.5l-.13-.43c-.24-.8-.48-1.61-.69-2.42a.19.19,0,0,0,0-.07,1.17,1.17,0,0,0-.05-.2l0-.12a.14.14,0,0,0,0-.06c0-.06,0-.11,0-.17a12,12,0,0,1-.51-3.22,14.46,14.46,0,0,1,2.75-.14H314c.31,0,.64,0,1,.07h.08a13,13,0,0,1,1.76.3l.78.21s.29,1.23.56,2.75h0c0,.14.06.29.08.44l.13.81c0,.1,0,.18,0,.27a17.48,17.48,0,0,1,.23,2.72"/><path class="cls-35" d="M318.42,45.28h0l-.72,0c-.66,0-1.33,0-2-.1.12.74.25,1.43.38,2,.05.25.11.46.16.64h-.07l-.5,0-.58-.06h0c-.13-.6-.25-1.21-.36-1.82,0-.26-.09-.53-.13-.79-1.41-.14-2.61-.31-2.61-.31l-.12-.43a.19.19,0,0,0,0-.07,1.17,1.17,0,0,0-.05-.2l0-.12a.14.14,0,0,0,0-.06l0-.17s1.28.16,2.72.29c-.28-1.87-.47-3.54-.48-3.65H314l1,.07h.08c0,.11.21,1.85.48,3.67l.69,0a13.33,13.33,0,0,0,1.85,0l.16,0,.13.81Z"/><path class="cls-37" d="M318.64,48s-1.12-.05-2.4-.15h-.07l-.5,0-.58-.06h0a7.59,7.59,0,0,1-2.4-.5l-.13-.43a4.87,4.87,0,0,0,1.49-.46,5.58,5.58,0,0,0,2.21-2.15,5.09,5.09,0,0,0,.61-1.7,4.28,4.28,0,0,0,0-1.71l.78.21s.29,1.23.56,2.75h0c0,.14.06.29.08.44l.13.81.05.27h0a17.48,17.48,0,0,1,.23,2.72"/><path class="cls-38" d="M311.17,40.54a10,10,0,0,1,6.79.24s.91,2.08,1,7.58a21.14,21.14,0,0,1-6.7-.68,50.33,50.33,0,0,1-1.07-6.19s1.2,5.25,1.61,5.66c0,0,4.48.88,5.6.69,0,0-.63-5.92-1.09-6.66,0,0-4.25-.9-6.16-.64"/><path class="cls-32" d="M310.09,39.92s.69,6.11,2,8.09a44.43,44.43,0,0,0,7.53.81s-5,.66-7.9-.23c0,0-2-5.19-1.59-8.67"/><path class="cls-38" d="M315.06,40.48s0,3.4.35,3.91a17.76,17.76,0,0,0,2.83-.2l-2.55-.29Zm3.35,4.8a13.82,13.82,0,0,0-2.91-.08l.74,2.64-.11-2.25a14.59,14.59,0,0,0,2.28-.31M312,44.81l2.61.31.52,2.61-.79-2.09Zm-.28-1.05,2.72.29-.48-3.65-.05,2.91Z"/><path class="cls-36" d="M334,41.82s5.62,20.27,5.62,20.27l6.34-.6,6.26-1.14,1.3-3L353,39.19Z"/><g class="cls-39"><path class="cls-37" d="M358.87,44.36a10.21,10.21,0,1,0-11.17,8.88,10.1,10.1,0,0,0,11.17-8.88"/></g><path class="cls-40" d="M335.51,46l-.11-.83,8.73-1.09.11.83Zm2.76,11-.1-.83,7.1-.83.1.82Zm7.84-12.4v-.83l6.38-.08,0,.83Zm.95,11.25L347,55l5.64-.53-.27.93Z"/><path class="cls-40" d="M343.52,41.23l2.27-.4s.36,11.94.12,20.66l-.47,0s-.66-13.28-1.92-20.3"/><path class="cls-40" d="M336.92,62.28l-4.81-20.9.74-1.43c.46-.11,11.82-2,20.25-1.12l1,.1.15.94a84.9,84.9,0,0,1-2.06,20.48l-.73.13a54.92,54.92,0,0,0,.41-19.26c-6.26-.42-13.89.92-16.83,1.5L338.3,62.2l-1.38.08Z"/><path class="cls-23" d="M338.3,62.2,332.85,40l1.22-.28c.47-.11,11.47-2.59,19.91-1.72l1,.1.16.94a59.24,59.24,0,0,1-.31,20.65l-2.63.71a60.81,60.81,0,0,0,.56-20c-6.26-.43-13.9.91-16.83,1.5L340.54,62Z"/><path class="cls-23" d="M344,41.11l2.31-.12S348.2,52.4,348,61.11l-2,.38s-.66-13.35-1.91-20.38"/><path class="cls-36" d="M336,28.05l2.41,6.58L348.5,33l-.16-6.45s-12.15,1-12.35,1.5"/><g class="cls-41"><path class="cls-37" d="M350.52,27.43c.07-2.68-2.8-4.93-6.43-5s-6.62,2-6.7,4.66,2.8,4.93,6.43,5,6.62-2,6.7-4.66"/></g><path class="cls-40" d="M336.4,28.53c.5,1.62,1.46,4.52,1.83,5.63l9.58-1.39c0-1.23-.31-3.94-.48-5.39-.59-.06-1.17-.1-1.76-.11A28.08,28.08,0,0,0,336.4,28.53Zm1.07,6.86-.15-.44c0-.05-1.62-4.86-2.14-6.62l-.14-.49.41-.43a32.32,32.32,0,0,1,10.15-1.25c.77,0,1.54.07,2.29.16l.44.05.05.43a52.53,52.53,0,0,1,.9,6.51l-.42.43Z"/><path class="cls-40" d="M342.39,27.27l.39-.06,1,6.19-.4.06Z"/><path class="cls-23" d="M336.82,28.1c.5,1.62,1.46,4.53,1.82,5.63l9.58-1.39c0-1.23-.3-3.94-.47-5.39-.59-.06-1.18-.1-1.77-.11a28.24,28.24,0,0,0-9.16,1.26ZM337.88,35l-.14-.44c0-.05-1.62-4.86-2.14-6.62l-.15-.49.48-.18A28.31,28.31,0,0,1,346,25.73c.77,0,1.55.07,2.3.16l.43.05.06.43a62.8,62.8,0,0,1,.52,6.5l0,.44Z"/><path class="cls-42" d="M92.18,62.15a8.91,8.91,0,0,1-2.11-.23,10.05,10.05,0,0,1-6-4.2l-.17-.28L81,25.34a.83.83,0,0,1,.57-.87l2.18-.71a.82.82,0,0,1,.77.13l.27.21a7.78,7.78,0,0,0,4.9,1.77,10.46,10.46,0,0,0,2-.22.85.85,0,0,0,.67-.9l-.64-6.89,0-.16a5.68,5.68,0,0,1,3.84-5,6.17,6.17,0,0,1,2-.33h.15a6.49,6.49,0,0,1,.85.07l15,2.37a.86.86,0,0,0,.39,0,23.34,23.34,0,0,1,4.44-1.06,34.24,34.24,0,0,1,4.52-.33c5.07,0,7,1.43,7.38,1.71l.29.25,11.61,30.47a.83.83,0,0,1-.48,1.08l-.07,0-2.25.65a.82.82,0,0,1-.89-.28.93.93,0,0,0-.31-.25,9.49,9.49,0,0,0-3.68-.55,26.43,26.43,0,0,0-3.45.25c-3.76.49-9.53,3-17.62,7.73-9.73,5.67-17.41,7.69-21.36,7.69"/><path class="cls-42" d="M92.18,62.64A9.26,9.26,0,0,1,90,62.4,10.53,10.53,0,0,1,83.69,58l-.23-.38-2.93-32.2A1.33,1.33,0,0,1,81.44,24l2.18-.71a1.36,1.36,0,0,1,1.22.21l.27.21a7.29,7.29,0,0,0,4.6,1.66,9.45,9.45,0,0,0,1.91-.21.35.35,0,0,0,.28-.37l-.65-6.94,0-.22a6.14,6.14,0,0,1,4.17-5.41,6.61,6.61,0,0,1,2.16-.35h.16a5.18,5.18,0,0,1,.92.08l15,2.37h0l.11,0a24.29,24.29,0,0,1,4.53-1.08,35.3,35.3,0,0,1,4.59-.33c5.24,0,7.33,1.52,7.69,1.82l.4.33,11.65,30.59a1.33,1.33,0,0,1-.77,1.72l-.1,0-2.26.66a1.32,1.32,0,0,1-1.41-.46.45.45,0,0,0-.13-.1,8.92,8.92,0,0,0-3.47-.5,26.81,26.81,0,0,0-3.39.24c-3.7.48-9.4,3-17.43,7.66-9.82,5.73-17.6,7.76-21.61,7.76"/><path class="cls-43" d="M85.38,57a8.54,8.54,0,0,0,5.05,3.52c3.38.85,11.87-1.19,22.37-7.31,7.47-4.35,13.77-7.35,18.17-7.92,6.78-.87,8.5.77,8.5.77l1.19-.35-3.58-3.63S91.92,52.48,91.76,52.64,85.38,57,85.38,57"/><path class="cls-15" d="M83.91,25.27l2.9,31.43s1.89,4.36,10.11,1.79c15.36-4.79,26.39-13.81,34.36-14.44,5.72-.45,8.54.18,9.38,1.64L129.44,16.23s-2.58-2.16-10.75-1.06-14.51,7.07-19.13,9.08c-5.1,2.21-10.33,5.15-15.65,1"/><g class="cls-44"><path class="cls-14" d="M131.83,22.62s-2.68-2.16-11.16-1.06-15.06,7.07-19.85,9.08c-5.29,2.21-10.72,5.15-16.25,1l-.66-6.58,30.72-11.23,14.39,1,.42,1.37,2.39,6.39Z"/></g><g class="cls-45"><path class="cls-14" d="M138.06,38.57c-.82-1.46-3.54-2.09-9.05-1.64-7.7.64-18.33,9.65-33.15,14.44-7.94,2.57-9.77-1.79-9.77-1.79l.72,7.12L89.12,61l7.28-1L123.59,48.9l8.85-.84,8.22-2.38Z"/></g><path class="cls-14" d="M99.89,51.59,96.16,30,98,29.71l3.73,21.56ZM125.77,41.3l-6.25-20.87,1.82-.54,6.25,20.87Z"/><path class="cls-43" d="M83.91,25.27l-1.37.45L85.38,57l1.43-.27Z"/><path class="cls-46" d="M134,42.57a3.45,3.45,0,0,1-2-2.09L124.78,18.6c-.41-1.24.14-2.26,1.23-2.27a3.17,3.17,0,0,1,2.71,2.22L136,40.44c.41,1.24-.14,2.25-1.23,2.26a2,2,0,0,1-.74-.13"/><path class="cls-47" d="M84.5,31.66l-1.37.62-.59-6.56,1.37-.45Zm1.66,18.06-1.38.6.6,6.65,1.43-.27Z"/><path class="cls-48" d="M98.84,28.65l1.55,16.57s.35,6.8,6.53,3.36,18.39-15.35,18.39-15.35,2.32-2,1.82-3.46-3.58-2-3.58-2L104,24.65a4.35,4.35,0,0,0-5.13,4"/><path d="M123.79,17.2h0c-1-1.31-3.83-1.83-3.83-1.83L97.34,11.8a4.91,4.91,0,0,0-.82-.06A5.59,5.59,0,0,0,94.7,12c-1.4.46-2.9,1.61-3.27,4.39l1.78,19.17s.18,3.43,2.36,4.61h0l4.12,3.9s1.46,1.55,4.7,0S125,26.57,125,26.57a8.41,8.41,0,0,0,1.46-4.3c0-2.27-2.64-5.07-2.64-5.07Z"/><path class="cls-47" d="M96.83,38.47l3.57,3.38s1.27,1.34,4.08,0,17.84-15.18,17.84-15.18A7.22,7.22,0,0,0,123.59,23c0-2-2.29-4.39-2.29-4.39L99,18.24Z"/><path class="cls-47" d="M96.83,38.47l3.57,3.38s1.27,1.34,4.08,0,17.84-15.18,17.84-15.18A7.22,7.22,0,0,0,123.59,23c0-2-2.29-4.39-2.29-4.39L99,18.24Z"/><path class="cls-49" d="M93.23,17.89l1.55,16.59s.35,6.8,6.53,3.36,18.41-15.37,18.41-15.37,2.32-2,1.83-3.45S118,17,118,17L98.36,13.89a4.35,4.35,0,0,0-5.13,4"/><g class="cls-50"><path class="cls-3" d="M118.06,20l4,2.21v-4l-2-1.42-2,.9Z"/></g><g class="cls-51"><path class="cls-3" d="M100.14,35.06,102,38.53l-4.84,1.9-2.37-3,2-2.42Z"/></g><path class="cls-43" d="M93.54,17.55,95,32.73s.32,6.23,6,3.09,16.86-14.08,16.86-14.08,2.12-1.81,1.67-3.16-3.28-1.87-3.28-1.87l-18-2.83a4,4,0,0,0-4.69,3.67"/><g class="cls-52"><path class="cls-4" d="M240.16,62.34c-8.35-1.3-9.87-8.48-10.28-13.75-.57-7.27,4.22-22,5.82-23.52,3.6-3.38,7.53-5.43,16.17-8.41,6.51-2.25,14.48-3.37,19-2.67.44.07.85.16,1.23.26,4.5,1.24,16.08,11.92,17.82,15l.1.17c1.65,2.88,5.53,9.61-.71,16.5-3.49,3.86-8.19,5.35-13.95,4.45a34.65,34.65,0,0,1-5.47-1.39,8.52,8.52,0,0,0-1.41-.34,11.51,11.51,0,0,0-10,3.79c-.51.56-1,1.19-1.58,1.87-2.95,3.59-7,8.51-14.49,8.29a16.65,16.65,0,0,1-2.23-.2"/><path class="cls-16" d="M236.9,26.34c-1,.95-5.84,15.07-5.29,22.11s2.94,12.13,10.83,12.35,11.45-6,14.73-9.59,8.58-5.46,13.23-3.94,12.08,3.5,17.58-2.57,2-11.9.39-14.63S275.46,17,271.6,15.93s-12.31,0-19.16,2.37c-8.75,3-12.25,4.95-15.54,8"/><g class="cls-53"><g class="cls-54"><path class="cls-3" d="M301.9,14.06c.26,13.75-15,25.2-34.14,25.55S233,29.11,232.69,15.36s15-25.2,34.14-25.56S301.65.3,301.9,14.06"/></g></g><path class="cls-55" d="M242.88,34s-1.71-6.58,1.73-6.74,4.09,4.58,4.09,4.58,2.1-2.3,3.7-1.43a6.3,6.3,0,0,1,1.89,2.4c.48,2.88-5.36,4-5.36,4s1.18,5.15-3.17,6.28c-1.29.33-3.17-1.16-3.59-1.78-.75-1.1.65-1.85.65-1.85s-2.67,1.83-3.79.77c-.27-.26-1.68-1.34-1.71-2-.17-3.37,5.56-4.28,5.56-4.28"/><path class="cls-14" d="M241.59,32.72s-1-4.2,2.29-5.28,3.53,3.11,3.53,3.11,5.11-1.91,5.59,1-5.36,4-5.36,4,1.18,5.16-3.17,6.28c-3.56.93-2.94-3.63-2.94-3.63s-4.1,2.81-4.27-.56,4.33-4.94,4.33-4.94"/><path class="cls-47" d="M273.87,30a2.92,2.92,0,0,1-5.81.66v-.05a2.92,2.92,0,0,1,5.81-.61"/><path class="cls-56" d="M273.87,30a2.92,2.92,0,0,1-5.81.66v-.05a2.92,2.92,0,0,1,5.81-.61"/><g class="cls-57"><path class="cls-58" d="M273.08,28.55a3,3,0,1,1-3.32-2.69,3,3,0,0,1,3.32,2.69"/></g><path class="cls-3" d="M270.4,29.46a1,1,0,0,1-.85,1.05,1,1,0,0,1-1.05-.85h0a.94.94,0,0,1,.85-1.05,1,1,0,0,1,1,.85"/><path class="cls-59" d="M277.18,24.85a2.92,2.92,0,0,1-5.81.64v0a2.93,2.93,0,0,1,5.82-.61"/><path class="cls-60" d="M277.18,24.85a2.92,2.92,0,0,1-5.81.64v0a2.93,2.93,0,0,1,5.82-.61"/><g class="cls-61"><path class="cls-62" d="M276.39,23.4a3,3,0,1,1-3.33-2.69,3,3,0,0,1,3.33,2.69"/></g><path class="cls-3" d="M273.7,24.31a1,1,0,0,1-.85,1.05,1,1,0,0,1-1.05-.85,1,1,0,0,1,.85-1.05.94.94,0,0,1,1.05.85"/><path class="cls-63" d="M271,22a2.93,2.93,0,1,1-5.82.64v0A2.93,2.93,0,0,1,271,22"/><g class="cls-64"><path class="cls-65" d="M270.21,20.52a3,3,0,0,1-6,.66v0a3,3,0,0,1,6-.63"/></g><path class="cls-3" d="M267.52,21.42a1,1,0,0,1-1.9.2h0a1,1,0,1,1,1.9-.2"/><path class="cls-66" d="M267.75,27.7a2.92,2.92,0,1,1-5.81.64v0a2.92,2.92,0,0,1,5.81-.61"/><path class="cls-67" d="M267.75,27.7a2.92,2.92,0,1,1-5.81.64v0a2.92,2.92,0,0,1,5.81-.61"/><g class="cls-68"><path class="cls-69" d="M267,26.25a3,3,0,1,1-3.32-2.69A3,3,0,0,1,267,26.25"/></g><path class="cls-3" d="M264.28,27.16a1,1,0,0,1-.85,1.05,1,1,0,0,1-1.05-.85h0a.94.94,0,0,1,.85-1.05,1,1,0,0,1,1,.85"/><path class="cls-70" d="M234.54,41.53s-1.27,11.72,3.31,14.13a7.15,7.15,0,0,0,8.07-.84s-9.4-.72-11.38-13.29m50.71-2.09c-1.7,2.55-4.45,3.71-6.14,2.59s-1.68-4.11,0-6.66,4.45-3.72,6.14-2.59,1.68,4.1,0,6.66"/></g><g class="cls-71"><path class="cls-4" d="M177.16,69.63a2.49,2.49,0,0,1-1.9-.78,2.77,2.77,0,0,1,0-3.58,17.54,17.54,0,0,1,5-4.91c-6.41.82-12.9,1.42-19.32,1.79h-.48a3.16,3.16,0,0,1-1.94-.56,3.64,3.64,0,0,1-1.24-2A124.35,124.35,0,0,1,152,30.18a4,4,0,0,1,.69-2.87,4,4,0,0,1,2-1.27A177.6,177.6,0,0,1,195.1,17.6l2.42-.23.1,0c2.43-.24,4.95-.48,7.48-.57l.61,0c.5,0,1-.06,1.56-.06a7.49,7.49,0,0,1,2.9.46c1.69.7,2.41,2.45,2.8,3.7a125.54,125.54,0,0,1,5.3,26.38v0a3.8,3.8,0,0,1-.38,2.28A3.74,3.74,0,0,1,216,51.06a104.53,104.53,0,0,1-18.53,6.29A21.33,21.33,0,0,1,204,59.86a3.47,3.47,0,0,1,1.62,2,2.26,2.26,0,0,1-.27,1.74,2.77,2.77,0,0,1-2,1.19L178,69.54a4.12,4.12,0,0,1-.86.09"/><path class="cls-66" d="M176.31,67.15S177.87,61,188.6,59.1,204,62,204,62Z"/><path class="cls-72" d="M188.72,58.86c-1.4.2-2.46,1.22-2.36,2.29s1.32,1.78,2.72,1.59,2.46-1.22,2.36-2.29a2.07,2.07,0,0,0-2.26-1.62Z"/><path class="cls-72" d="M186.36,61.15l-.59-4.87,5.13-.36.54,4.53"/><path class="cls-43" d="M190.29,61.48c-.29.12-.53-.15-.57-.64l-.3-3.5a1.8,1.8,0,0,1,.51-1.45c.33-.24.63,0,.68.58L190.9,60a1.84,1.84,0,0,1-.5,1.46l-.11.06"/><path class="cls-66" d="M209.1,18.63c-5.67,0-30.91.54-54.35,9.32a1.78,1.78,0,0,0-1.14,1.77c.28,4.26,1.46,18.08,5.33,29.56a1.79,1.79,0,0,0,1.78,1.22c6.89-.37,38.89-2.51,55.07-11.32a1.79,1.79,0,0,0,.92-1.77c-.5-4.24-2.43-19-6-27.68a1.76,1.76,0,0,0-1.63-1.1"/><g class="cls-73"><path class="cls-43" d="M226.59,17c0,15.11-15.48,27.36-34.58,27.36S157.43,32.12,157.43,17,172.91-10.36,192-10.36,226.59,1.89,226.59,17"/></g><path class="cls-7" d="M207.84,21.3s-28,0-51.51,8.47c0,0,.63,15.39,5.13,27.82,0,0,36.92-1.44,52.14-10.44,0,0-1.08-18.2-5.76-25.85"/><g class="cls-74"><path class="cls-8" d="M225,21.3c0,12.68-14.78,23-33,23S159,34,159,21.3s14.77-23,33-23,33,10.28,33,23"/></g><path class="cls-43" d="M208.14,20.76h-.3c-.07,0-7.14,0-17,1.06-9.1,1-22.5,3.05-34.71,7.45l-.37.13,0,.4c0,.15.68,15.61,5.16,28l.14.37.39,0c.09,0,9.38-.38,20.41-1.85a160.35,160.35,0,0,0,17.27-3.18,56.4,56.4,0,0,0,14.71-5.49l.29-.17,0-.33S213.86,42.48,213,37c-1.15-7.37-2.73-12.76-4.71-16Zm-.3.54c4.68,7.65,5.76,25.85,5.76,25.85-15.22,9-52.14,10.44-52.14,10.44-4.5-12.43-5.13-27.82-5.13-27.82C179.85,21.3,207.84,21.3,207.84,21.3Z"/><path class="cls-72" d="M176.31,67.15l.16.56A.46.46,0,0,0,177,68l26.65-5a.43.43,0,0,0,.35-.44l0-.64Z"/></g></svg>