<?xml version="1.0" encoding="UTF-8"?>
<svg width="311px" height="233px" viewBox="0 0 311 233" version="1.1" xmlns="http://www.w3.org/2000/svg" xmlns:xlink="http://www.w3.org/1999/xlink">
    <!-- Generator: sketchtool 50 (54983) - http://www.bohemiancoding.com/sketch -->
    <title>F4915742-F232-49C2-AD16-515877BC272E</title>
    <desc>Created with sketchtool.</desc>
    <defs></defs>
    <g id="Symbols" stroke="none" stroke-width="1" fill="none" fill-rule="evenodd">
        <g id="Frame/Shape01" fill="#000000">
            <g id="-g-Frame-01">
                <path d="M264.629083,228.982522 L226.758551,227.625402 C201.627107,226.767487 176.703501,226.011207 151.891808,225.38745 C139.467475,225.023758 127.116087,224.818496 114.745712,224.560424 C102.379335,224.306338 90.02295,224.050259 77.6925447,223.950617 C54.1218859,223.630768 30.5861998,223.76927 6.92661016,224.032324 C6.714775,206.508344 6.44998104,188.984365 6.32208057,171.462378 C6.1721972,152.777574 6.17819253,134.093765 6.34806035,115.41195 C6.51592973,96.7291378 6.81070036,78.0483187 7.24136524,59.3694924 C7.63306045,41.6173336 8.17264058,23.8671677 8.73420361,6.11700173 C32.8144659,6.88025687 56.8947282,7.68237227 80.9759897,8.30015058 L155.904685,9.86552112 L193.370532,10.5610199 C205.858814,10.7901958 218.347096,11.0253501 230.837377,11.1489057 L268.305222,11.5773649 L300.721998,11.7397808 C300.639062,28.4187989 300.745979,45.114756 300.775956,61.8396093 C300.787946,71.0514811 300.909851,80.297231 300.976799,89.5469667 L301.252585,117.365923 L302.019988,173.499054 L302.940272,230.511025 L264.629083,228.982522 Z M305.891975,1.61220212 L268.426128,0.950581471 L230.957284,0.534079317 C218.468002,0.376645489 205.977722,0.32881749 193.487441,0.277003825 L156.015599,0.126544913 L81.0709159,0 C56.0873565,0.076724081 31.1027978,0.352731489 6.11723996,0.575928816 L3.32741083,0.601835648 L3.35139216,3.27322865 C3.52026076,21.9590298 3.67214258,40.644831 3.65915269,59.3286394 C3.66514802,78.0124477 3.53724754,96.6952596 3.28044737,115.376079 C3.02664486,134.056898 2.60797065,152.736721 2.03341773,171.41455 C1.47385314,190.09238 0.754412965,208.768217 0.113911362,227.445051 L0,230.783046 L3.50327398,230.90162 C28.6716896,231.75256 53.9889893,232.479944 79.2643217,232.707127 C91.9134789,232.891464 104.536656,232.917371 117.147843,232.946267 C129.757032,232.968188 142.385205,233.044912 154.939436,232.963206 C180.085869,232.904417 205.119389,232.711113 229.946071,232.41717 L267.012228,231.906008 C279.316654,231.725657 291.523156,231.484524 303.638728,231.223463 L305.830023,176.145537 L307.870435,120.187775 L308.782725,91.9622806 C309.061508,82.5302007 309.396248,73.096128 309.620074,63.6261843 C310.077718,44.6962611 310.64028,25.7294704 310.925058,6.74574063 L311,1.7008832 L305.891975,1.61220212 Z" id="Fill-1"></path>
            </g>
        </g>
    </g>
</svg>